<?xml version="1.0" standalone="no"?><!DOCTYPE svg PUBLIC "-//W3C//DTD SVG 1.1//EN" "http://www.w3.org/Graphics/SVG/1.1/DTD/svg11.dtd"><svg t="1697267079900" class="icon" viewBox="0 0 1024 1024" version="1.1" xmlns="http://www.w3.org/2000/svg" p-id="74517" xmlns:xlink="http://www.w3.org/1999/xlink" width="200" height="200"><path d="M917.333333 512c0-130.133333-61.866667-251.733333-168.533333-328.533333-19.2-14.933333-44.8-10.666667-59.733333 8.533333-12.8 19.2-8.533333 44.8 8.533333 59.733333 85.333333 59.733333 134.4 157.866667 134.4 260.266667 0 177.066667-142.933333 320-320 320-17.066667 0-32 10.666667-38.4 25.6-6.4 14.933333-2.133333 34.133333 8.533333 46.933333l106.666667 106.666667c8.533333 8.533333 19.2 12.8 29.866667 12.8s21.333333-4.266667 29.866666-12.8c17.066667-17.066667 17.066667-42.666667 0-59.733333l-44.8-44.8C782.933333 864 917.333333 704 917.333333 512M106.666667 512c0 130.133333 61.866667 251.733333 168.533333 328.533333 8.533333 6.4 17.066667 8.533333 25.6 8.533334 12.8 0 25.6-6.4 34.133333-17.066667 12.8-19.2 8.533333-44.8-10.666666-59.733333C241.066667 712.533333 192 614.4 192 512c0-177.066667 142.933333-320 320-320 17.066667 0 32-10.666667 38.4-25.6 8.533333-17.066667 4.266667-34.133333-8.533333-46.933333l-106.666667-106.666667c-17.066667-17.066667-42.666667-17.066667-59.733333 0-17.066667 17.066667-17.066667 42.666667 0 59.733333l44.8 44.8C241.066667 160 106.666667 320 106.666667 512" fill="#8a8a8a" p-id="74518"></path><path d="M512 682.666667c-93.866667 0-170.666667-76.8-170.666667-170.666667s76.8-170.666667 170.666667-170.666667 170.666667 76.8 170.666667 170.666667-76.8 170.666667-170.666667 170.666667z m0-256c-46.933333 0-85.333333 38.4-85.333333 85.333333s38.4 85.333333 85.333333 85.333333 85.333333-38.4 85.333333-85.333333-38.4-85.333333-85.333333-85.333333z" fill="#8a8a8a" p-id="74519"></path></svg>