<?xml version="1.0" standalone="no"?><!DOCTYPE svg PUBLIC "-//W3C//DTD SVG 1.1//EN" "http://www.w3.org/Graphics/SVG/1.1/DTD/svg11.dtd"><svg t="1697246653496" class="icon" viewBox="0 0 1024 1024" version="1.1" xmlns="http://www.w3.org/2000/svg" p-id="6888" xmlns:xlink="http://www.w3.org/1999/xlink" width="200" height="200"><path d="M872.448 264.192H151.552c-18.432 0-32.768 14.336-32.768 32.768v440.32c0 18.432 14.336 32.768 32.768 32.768h220.16c35.84 0 65.536 29.696 65.536 65.536h158.72c0-35.84 29.696-65.536 65.536-65.536h210.944c18.432 0 32.768-14.336 32.768-32.768V296.96c0-18.432-14.336-32.768-32.768-32.768z" fill="#FDD838" p-id="6889"></path><path d="M595.968 849.92H437.248c-8.192 0-15.36-7.168-15.36-15.36 0-27.648-22.528-50.176-50.176-50.176H151.552c-26.624 0-48.128-21.504-48.128-48.128V296.96c0-26.624 21.504-48.128 48.128-48.128h720.896c26.624 0 48.128 21.504 48.128 48.128v440.32c0 26.624-21.504 48.128-48.128 48.128H661.504c-27.648 0-50.176 22.528-50.176 50.176 0 8.192-6.144 14.336-15.36 14.336zM450.56 819.2h131.072c7.168-36.864 39.936-65.536 79.872-65.536h210.944c9.216 0 17.408-8.192 17.408-17.408V296.96c0-9.216-8.192-17.408-17.408-17.408H151.552c-9.216 0-17.408 8.192-17.408 17.408v440.32c0 9.216 8.192 17.408 17.408 17.408h220.16c38.912-1.024 71.68 27.648 78.848 64.512z" fill="#251C4E" p-id="6890"></path><path d="M570.368 220.16L512 264.192l-58.368-43.008c-27.648-20.48-60.416-31.744-95.232-31.744H216.064c-15.36 0-27.648 12.288-27.648 27.648v467.968c0 15.36 12.288 27.648 27.648 27.648h145.408c32.768 0 64.512 10.24 91.136 28.672l59.392 41.984 59.392-41.984c26.624-18.432 58.368-28.672 91.136-28.672h143.36c15.36 0 27.648-12.288 27.648-27.648V217.088c0-15.36-12.288-27.648-27.648-27.648H665.6c-34.816 0-67.584 10.24-95.232 30.72z" fill="#FFFFFF" p-id="6891"></path><path d="M512 798.72c-3.072 0-6.144-1.024-9.216-3.072l-59.392-41.984c-24.576-17.408-52.224-25.6-81.92-25.6H216.064c-23.552 0-43.008-19.456-43.008-43.008V217.088c0-23.552 19.456-43.008 43.008-43.008H358.4c36.864 0 74.752 12.288 104.448 34.816L512 245.76l49.152-36.864C590.848 186.368 627.712 174.08 665.6 174.08h141.312c23.552 0 43.008 19.456 43.008 43.008v467.968c0 23.552-19.456 43.008-43.008 43.008h-143.36c-29.696 0-58.368 9.216-81.92 25.6L522.24 795.648c-4.096 2.048-7.168 3.072-10.24 3.072zM216.064 204.8c-7.168 0-12.288 6.144-12.288 12.288v467.968c0 7.168 6.144 12.288 12.288 12.288h145.408c35.84 0 70.656 11.264 100.352 31.744l50.176 35.84 50.176-35.84c29.696-20.48 63.488-31.744 100.352-31.744h143.36c7.168 0 12.288-6.144 12.288-12.288V217.088c0-7.168-6.144-12.288-12.288-12.288H665.6c-30.72 0-61.44 10.24-86.016 28.672L521.216 276.48c-5.12 4.096-13.312 4.096-18.432 0l-58.368-43.008C419.84 214.016 389.12 204.8 358.4 204.8H216.064z" fill="#251C4E" p-id="6892"></path><path d="M506.88 711.68c-8.192 0-15.36-7.168-15.36-15.36V276.48c0-8.192 7.168-15.36 15.36-15.36s15.36 7.168 15.36 15.36v419.84c0 8.192-7.168 15.36-15.36 15.36zM778.24 389.12H563.2c-8.192 0-15.36-7.168-15.36-15.36S555.008 358.4 563.2 358.4h215.04c8.192 0 15.36 7.168 15.36 15.36S786.432 389.12 778.24 389.12zM450.56 389.12H235.52c-8.192 0-15.36-7.168-15.36-15.36S227.328 358.4 235.52 358.4h215.04c8.192 0 15.36 7.168 15.36 15.36S458.752 389.12 450.56 389.12zM450.56 481.28H235.52c-8.192 0-15.36-7.168-15.36-15.36S227.328 450.56 235.52 450.56h215.04c8.192 0 15.36 7.168 15.36 15.36S458.752 481.28 450.56 481.28z" fill="#251C4E" p-id="6893"></path><path d="M450.56 573.44H235.52c-8.192 0-15.36-7.168-15.36-15.36S227.328 542.72 235.52 542.72h215.04c8.192 0 15.36 7.168 15.36 15.36S458.752 573.44 450.56 573.44z" fill="#251C4E" p-id="6894"></path><path d="M558.08 451.584h215.04v93.184h-215.04z" fill="#FF6660" p-id="6895"></path><path d="M773.12 560.128h-215.04c-8.192 0-15.36-7.168-15.36-15.36v-93.184c0-8.192 7.168-15.36 15.36-15.36h215.04c8.192 0 15.36 7.168 15.36 15.36v93.184c0 8.192-6.144 15.36-15.36 15.36z m-199.68-30.72h184.32v-62.464H573.44v62.464z" fill="#251C4E" p-id="6896"></path></svg>