<?xml version="1.0" standalone="no"?><!DOCTYPE svg PUBLIC "-//W3C//DTD SVG 1.1//EN" "http://www.w3.org/Graphics/SVG/1.1/DTD/svg11.dtd"><svg t="1697272115988" class="icon" viewBox="0 0 1024 1024" version="1.1" xmlns="http://www.w3.org/2000/svg" p-id="85339" xmlns:xlink="http://www.w3.org/1999/xlink" width="200" height="200"><path d="M512.2 511.9m-447.5 0a447.5 447.5 0 1 0 895 0 447.5 447.5 0 1 0-895 0Z" fill="#FFFFFF" p-id="85340"></path><path d="M512.2 257.9c-46.7 0-84.6 37.9-84.6 84.6s37.9 84.6 84.6 84.6 84.6-37.9 84.6-84.6-37.9-84.6-84.6-84.6z m0 123.7c-21.6 0-39.1-17.5-39.1-39.1s17.5-39.1 39.1-39.1 39.1 17.5 39.1 39.1-17.5 39.1-39.1 39.1z" fill="#FFAE07" p-id="85341"></path><path d="M792 629.6c0 17.9-14.6 32.5-32.5 32.5H264.9c-17.9 0-32.5-14.6-32.5-32.5v-0.6c0-170.8 125.3-286.4 279.9-286.4S792 449 792 628.9v0.7z" fill="#FFAE07" p-id="85342"></path><path d="M377.5 522.4m-58.6 0a58.6 58.6 0 1 0 117.2 0 58.6 58.6 0 1 0-117.2 0Z" fill="#FFFFFF" p-id="85343"></path><path d="M828.4 713.8c0 34.6-24.8 52.1-42.7 52.1H236.3c-17.9 0-40.4-16.5-40.4-52.1h632.5z" fill="#FFAE07" p-id="85344"></path></svg>