<?xml version="1.0" standalone="no"?><!DOCTYPE svg PUBLIC "-//W3C//DTD SVG 1.1//EN" "http://www.w3.org/Graphics/SVG/1.1/DTD/svg11.dtd"><svg t="1697409924955" class="icon" viewBox="0 0 1024 1024" version="1.1" xmlns="http://www.w3.org/2000/svg" p-id="7903" xmlns:xlink="http://www.w3.org/1999/xlink" width="200" height="200"><path d="M537.28385 202.168466c-74.132394 0-133.216048 73.27384-133.216048 152.019299s59.083653 150.689001 133.216048 150.689001 133.932362-71.943542 133.932362-150.689001S611.416244 202.168466 537.28385 202.168466z" fill="#FBCD7F" p-id="7904"></path><path d="M733.077118 800.028972l-85.029582 43.290969c-2.422166 1.344624-5.114484 2.028193-7.765871 2.028193-3.464915 0-6.910387-1.146103-9.790994-3.39533-5.198395-3.925403-7.724938-10.67206-6.659677-17.264199l16.153912-96.141664-67.23838-66.920132c-4.551666-4.696975-6.200212-11.707646-4.217045-18.035772 1.941212-6.41613 7.161097-11.06808 13.44522-12.060687l93.564979-18.563798 42.569538-88.851631c2.839675-6.019087 8.622378-9.855462 14.990413-9.855462s12.171204 3.836375 14.948457 9.855462l42.590004 88.851631 92.746334 18.275225c6.304589 0.992607 11.524474 5.644557 13.465686 12.016685 1.983167 6.372128 0.355087 13.383822-4.196579 18.035772l-66.440202 67.252707 15.124466 86.11838c73.320912-79.728856 118.094652-186.123025 118.094652-302.979476 0-247.27171-200.453405-447.725114-447.725114-447.725114S63.98222 264.414135 63.98222 511.684822s200.453405 447.725114 447.725114 447.725114c116.826775 0 223.197408-44.751227 302.919101-118.039393L733.077118 800.028972zM265.027096 802.683429c-11.159154 0-21.949918 0-21.949918 0 0-122.244158 89.051175-247.64624 211.465203-287.664675-51.836599-31.452339-89.830935-91.800799-89.830935-160.828942 0-101.299127 77.206406-185.874361 172.572404-185.874361s172.777065 84.575234 172.777065 185.874361c0 67.74287-36.9434 127.129422-87.156012 159.045319 15.797801 4.76042 32.440853 11.138688 47.142693 18.361183l-21.544689 45.490054c-34.800597-17.053398-71.691809-27.15036-107.175975-27.15036C413.237649 549.934984 288.773939 631.555933 265.027096 802.683429z" fill="#FBCD7F" p-id="7905"></path><path d="M771.19118 640.368646 733.168192 559.130414 695.782723 637.856429 609.181343 654.105508 671.629627 717.502397 656.525628 804.527426 733.192751 765.473969 810.532187 802.723338 795.046494 717.508537 857.621669 654.153604Z" fill="#FBCD7F" p-id="7906"></path></svg>