<?xml version="1.0" standalone="no"?><!DOCTYPE svg PUBLIC "-//W3C//DTD SVG 1.1//EN" "http://www.w3.org/Graphics/SVG/1.1/DTD/svg11.dtd"><svg t="1697272081350" class="icon" viewBox="0 0 1024 1024" version="1.1" xmlns="http://www.w3.org/2000/svg" p-id="84275" xmlns:xlink="http://www.w3.org/1999/xlink" width="200" height="200"><path d="M976 992h-320a16 16 0 0 1-16-16v-52a16 16 0 0 1 16-16h320a16 16 0 0 1 16 16v52a16 16 0 0 1-16 16z" fill="#F9A7A7" p-id="84276"></path><path d="M976 912h-320a16 16 0 0 1-16-16v-52a16 16 0 0 1 16-16h320a16 16 0 0 1 16 16v52a16 16 0 0 1-16 16z" fill="#F9A7A7" p-id="84277"></path><path d="M816 568m-176 0a176 176 0 1 0 352 0 176 176 0 1 0-352 0Z" fill="#F9A7A7" p-id="84278"></path><path d="M642.244 540c-1.46 9.12-2.244 18.468-2.244 28s0.784 18.88 2.244 28h347.516c1.46-9.12 2.244-18.468 2.244-28s-0.784-18.88-2.244-28h-347.516z" fill="#F9CFCF" p-id="84279"></path><path d="M499.076 326.68l-47.848-68.352a39.992 39.992 0 0 1-7.232-22.94V184H116v51.392a39.992 39.992 0 0 1-7.232 22.94L60.924 326.68A159.992 159.992 0 0 0 32 418.436v525.22c0 26.508 21.492 48 48 48h400c26.508 0 48-21.492 48-48V418.436a159.992 159.992 0 0 0-28.924-91.756z" fill="#6BDDDD" p-id="84280"></path><path d="M451.68 184H108.32A32.32 32.32 0 0 1 76 151.68V64.32A32.32 32.32 0 0 1 108.32 32h343.364a32.32 32.32 0 0 1 32.32 32.32v87.36A32.32 32.32 0 0 1 451.68 184z" fill="#4671C6" p-id="84281"></path><path d="M451.68 192H108.32C86.084 192 68 173.916 68 151.68V64.32C68 42.084 86.084 24 108.32 24h343.36C473.916 24 492 42.084 492 64.32v87.36c0 22.236-18.084 40.32-40.32 40.32zM108.32 40A24.348 24.348 0 0 0 84 64.32v87.36A24.348 24.348 0 0 0 108.32 176h343.36a24.344 24.344 0 0 0 24.32-24.32V64.32a24.348 24.348 0 0 0-24.32-24.32H108.32z" fill="#3762CC" p-id="84282"></path><path d="M480 999.656H80c-30.88 0-56-25.12-56-56V418.436c0-34.644 10.5-67.96 30.368-96.34l47.848-68.352A31.852 31.852 0 0 0 108 235.392V184a8 8 0 0 1 8-8h328a8 8 0 0 1 8 8v51.392c0 6.6 2 12.944 5.784 18.352l47.848 68.352A167.184 167.184 0 0 1 536 418.436v525.22c0 30.88-25.12 56-56 56zM124 192v43.392c0 9.9-3 19.416-8.676 27.528L67.476 331.268A151.26 151.26 0 0 0 40 418.436v525.22c0 22.056 17.944 40 40 40h400c22.056 0 40-17.944 40-40V418.436a151.268 151.268 0 0 0-27.476-87.168l-47.848-68.352A47.768 47.768 0 0 1 436 235.392V192H124z" fill="#3762CC" p-id="84283"></path><path d="M120 152a16 16 0 0 1-16-16V72a16 16 0 0 1 32 0v64a16 16 0 0 1-16 16zM200 152a16 16 0 0 1-16-16V72a16 16 0 0 1 32 0v64a16 16 0 0 1-16 16zM280 152a16 16 0 0 1-16-16V72a16 16 0 0 1 32 0v64a16 16 0 0 1-16 16zM360 152a16 16 0 0 1-16-16V72a16 16 0 0 1 32 0v64a16 16 0 0 1-16 16zM440 152a16 16 0 0 1-16-16V72a16 16 0 0 1 32 0v64a16 16 0 0 1-16 16z" fill="#A4C9FF" p-id="84284"></path><path d="M280 604m-160 0a160 160 0 1 0 320 0 160 160 0 1 0-320 0Z" fill="#F9A7A7" p-id="84285"></path><path d="M528 484H385.772c33.236 29.32 54.228 72.196 54.228 120s-20.992 90.68-54.228 120H528v-240zM120 604c0-47.804 20.992-90.68 54.228-120H32v240h142.228C140.992 694.68 120 651.804 120 604z" fill="#4671C6" p-id="84286"></path><path d="M190.644 615.012a28 28 0 0 1-28-28v-16a28 28 0 1 1 56 0v16a28 28 0 0 1-28 28zM369.356 615.012a28 28 0 0 0 28-28v-16a28 28 0 1 0-56 0v16a28 28 0 0 0 28 28zM244.232 563.468a28 28 0 0 1-28-28v-16a28 28 0 1 1 56 0v16a28 28 0 0 1-28 28zM314.256 563.468a28 28 0 0 0 28-28v-16a28 28 0 1 0-56 0v16a28 28 0 0 0 28 28zM335.012 618.612c-2.48-0.62-4.2-2.72-4.2-5.12 0-26.232-22.748-47.492-50.808-47.492s-50.808 21.264-50.808 47.492c0 2.4-1.72 4.5-4.2 5.12-21.42 5.352-37.2 23.604-37.2 45.312v1.16c0 25.908 22.472 46.912 50.188 46.912h84.036c27.72 0 50.188-21.004 50.188-46.912v-1.16c0.004-21.708-15.776-39.96-37.196-45.312z" fill="#4671C6" p-id="84287"></path><path d="M816 752c-101.456 0-184-82.544-184-184s82.544-184 184-184 184 82.544 184 184-82.544 184-184 184z m0-352c-92.636 0-168 75.364-168 168s75.364 168 168 168 168-75.364 168-168-75.364-168-168-168zM976 1000h-320c-13.236 0-24-10.764-24-24v-52c0-13.236 10.764-24 24-24h320c13.236 0 24 10.764 24 24v52c0 13.236-10.764 24-24 24z m-320-84c-4.412 0-8 3.588-8 8v52c0 4.412 3.588 8 8 8h320c4.412 0 8-3.588 8-8v-52c0-4.412-3.588-8-8-8h-320z" fill="#3762CC" p-id="84288"></path><path d="M976 920h-320c-13.236 0-24-10.764-24-24v-52c0-13.236 10.764-24 24-24h320c13.236 0 24 10.764 24 24v52c0 13.236-10.764 24-24 24z m-320-84c-4.412 0-8 3.588-8 8v52c0 4.412 3.588 8 8 8h320c4.412 0 8-3.588 8-8v-52c0-4.412-3.588-8-8-8h-320z" fill="#3762CC" p-id="84289"></path><path d="M272.476 693.5l-23.768-63.056a3.78 3.78 0 0 1 3.536-5.112h11.068c1.6 0 3.024 1.004 3.56 2.512l11.584 32.504c1.192 3.344 5.92 3.348 7.12 0.004l11.644-32.516a3.78 3.78 0 0 1 3.56-2.504h10.888c2.64 0 4.468 2.636 3.54 5.108l-23.68 63.056a3.776 3.776 0 0 1-3.54 2.452h-11.976a3.784 3.784 0 0 1-3.536-2.448z" fill="#FFEA92" p-id="84290"></path></svg>